<svg width="1440" height="1616" viewBox="0 0 1440 1616" fill="none" xmlns="http://www.w3.org/2000/svg">
<g clip-path="url(#clip0_1589_60869)">
<rect width="1440" height="1616" fill="#F7F8FA"/>
<path fill-rule="evenodd" clip-rule="evenodd" d="M1280.53 391.744C1248.79 397.973 1212.63 407.381 1185.16 390.287C1157.66 373.174 1139.74 337.62 1141.52 305.248C1143.32 272.686 1200.24 256.948 1194.28 224.888C1186.11 180.919 1105.49 169.832 1108.06 125.183C1110.03 91.0152 1171.88 104.86 1202.11 88.8849C1230.8 73.7236 1248.12 32.6396 1280.53 34.0347C1313.26 35.4435 1325.98 80.5499 1355.15 95.4725C1386.68 111.598 1433.13 96.3092 1455.69 123.628C1477.59 150.143 1469.82 191.378 1462.03 224.888C1455.05 254.913 1433.45 278.102 1414.19 302.154C1397.37 323.164 1378.86 341.679 1356.51 356.66C1332.93 372.464 1308.38 386.28 1280.53 391.744Z" fill="url(#paint0_linear_1589_60869)" fill-opacity="0.3"/>
<path fill-rule="evenodd" clip-rule="evenodd" d="M104.468 1607.74C136.209 1613.97 172.367 1623.38 199.839 1606.29C227.341 1589.17 245.262 1553.62 243.477 1521.25C241.683 1488.69 184.765 1472.95 190.723 1440.89C198.894 1396.92 279.512 1385.83 276.94 1341.18C274.972 1307.02 213.118 1320.86 182.889 1304.88C154.201 1289.72 136.877 1248.64 104.468 1250.03C71.7373 1251.44 59.0215 1296.55 29.8464 1311.47C-1.68094 1327.6 -48.1337 1312.31 -70.6939 1339.63C-92.5907 1366.14 -84.8182 1407.38 -77.0276 1440.89C-70.0471 1470.91 -48.4484 1494.1 -29.189 1518.15C-12.3656 1539.16 6.13856 1557.68 28.4874 1572.66C52.0656 1588.46 76.6243 1602.28 104.468 1607.74Z" fill="url(#paint1_linear_1589_60869)" fill-opacity="0.3"/>
</g>
<defs>
<linearGradient id="paint0_linear_1589_60869" x1="1289" y1="400" x2="1289" y2="34" gradientUnits="userSpaceOnUse">
<stop stop-color="#008EFF"/>
<stop offset="1" stop-color="#008EFF" stop-opacity="0"/>
</linearGradient>
<linearGradient id="paint1_linear_1589_60869" x1="96" y1="1616" x2="96" y2="1250" gradientUnits="userSpaceOnUse">
<stop stop-color="#008EFF"/>
<stop offset="1" stop-color="#008EFF" stop-opacity="0"/>
</linearGradient>
<clipPath id="clip0_1589_60869">
<rect width="1440" height="1616" fill="white"/>
</clipPath>
</defs>
</svg>
