<svg width="25" height="25" viewBox="0 0 25 25" fill="none" xmlns="http://www.w3.org/2000/svg">
<circle cx="12.5" cy="12.5" r="12.5" fill="#008EFF" fill-opacity="0.1"/>
<g clip-path="url(#clip0_1223_60002)">
<path d="M11.1739 12.4995L5.27422 6.59984C4.90859 6.23422 4.90859 5.63984 5.27422 5.27422C5.63984 4.90859 6.23422 4.90859 6.59984 5.27422L12.4995 11.1739L18.3992 5.27422C18.7648 4.90859 19.3592 4.90859 19.7248 5.27422C20.0905 5.63984 20.0905 6.23422 19.7248 6.59984L13.8252 12.4995L19.7248 18.3992C20.0905 18.7648 20.0905 19.3592 19.7248 19.7248C19.3592 20.0905 18.7648 20.0905 18.3992 19.7248L12.4995 13.8252L6.59984 19.7248C6.23422 20.0905 5.63984 20.0905 5.27422 19.7248C4.90859 19.3592 4.90859 18.7648 5.27422 18.3992L11.1739 12.4995Z" fill="#008EFF" fill-opacity="0.6"/>
</g>
<defs>
<clipPath id="clip0_1223_60002">
<rect width="15" height="15" fill="white" transform="translate(5 5)"/>
</clipPath>
</defs>
</svg>
