<svg width="1440" height="729" viewBox="0 0 1440 729" fill="none" xmlns="http://www.w3.org/2000/svg">
<g clip-path="url(#clip0_1589_58767)">
<rect width="1440" height="729" fill="#F7F8FA"/>
<g opacity="0.05">
<path d="M936.551 422.946C959.264 389.46 981.399 356.345 1010.76 328.142C1025.83 313.668 1054.42 289.275 1071.16 277.386C1118.67 243.647 1172.4 218.864 1224.58 193.531C1297.93 157.921 1371.94 123.936 1447.58 93.4749C1486.82 77.6762 1526.37 62.6467 1565.67 47.0225" stroke="#008EFF" stroke-width="2" stroke-linecap="round"/>
<path d="M963.086 461.644C998.839 432.825 1031.96 400.743 1068.5 372.9C1103.01 346.604 1140.59 325.035 1178.53 304.158C1223.15 279.603 1268.13 257.782 1315.89 239.974C1439.39 193.918 1566.1 155.036 1691.97 116.036C1726.62 105.3 1761.67 96.8924 1796.75 87.9316" stroke="#008EFF" stroke-width="2" stroke-linecap="round"/>
<path d="M995.15 501.447C1002.96 494.029 1012.37 484.67 1021.01 478.142C1039.96 463.81 1061.82 453.742 1083.11 443.5C1166.46 403.401 1254.21 374.358 1339.82 339.639C1424.63 305.24 1508.36 267.489 1595.64 239.514C1635.2 226.832 1675.71 217.229 1716.04 207.343" stroke="#008EFF" stroke-width="2" stroke-linecap="round"/>
<path d="M1034.95 529.088C1058.07 514.122 1080.54 497.546 1104.17 483.503C1142.54 460.704 1184.24 446.545 1227.04 434.552C1289.47 417.057 1352.09 407.001 1416.72 402.362C1513.49 395.416 1610.8 395.9 1707.76 393.601C1723.79 393.221 1739.81 393.093 1755.84 393.093" stroke="#008EFF" stroke-width="2" stroke-linecap="round"/>
<path d="M1049.33 554.371C1158.98 524.99 1270.53 506.583 1384.12 501.431C1508.4 495.794 1633.79 512.842 1756.01 534.058C1804.81 542.528 1853.56 553.995 1902.89 558.942" stroke="#008EFF" stroke-width="2" stroke-linecap="round"/>
<path d="M1064.81 581.59C1089.09 581.59 1113.2 575.99 1137.56 575.263C1190.24 573.69 1243.35 574.453 1296 576.453C1371.29 579.312 1446.09 589.885 1520.35 602.014C1570.41 610.191 1617.69 621.885 1662.06 646.433C1678.04 655.278 1694.1 662.102 1711.62 667.296" stroke="#008EFF" stroke-width="2" stroke-linecap="round"/>
<path d="M1088.03 610.907C1121.02 613.26 1153.72 625.312 1184.86 635.58C1242.97 654.748 1300.89 675.808 1356.08 702.388C1383.89 715.783 1410.56 731.29 1437.26 746.736C1455.94 757.545 1490.13 779.859 1508 792C1553 822.569 1620.48 888.734 1626 897" stroke="#008EFF" stroke-width="2" stroke-linecap="round"/>
<path d="M1100.19 647.394C1116.06 655.496 1127.96 668.291 1140.33 680.911C1183.54 724.996 1226.64 769.503 1268.18 815.168C1292.33 841.724 1314 869.474 1334.57 898.834C1338.56 904.53 1344.12 910.608 1346.75 917.174" stroke="#008EFF" stroke-width="2" stroke-linecap="round"/>
<path d="M1097.98 683.881C1113.17 701.646 1126.2 720.93 1138.7 740.67C1161.23 776.251 1183.98 812.269 1196.62 852.731C1206.93 885.752 1214.07 919.022 1214.07 953.661" stroke="#008EFF" stroke-width="2" stroke-linecap="round"/>
<path d="M1084.71 703.782C1093.24 726.97 1095.73 751.734 1098.94 776.102C1104.55 818.712 1107.49 860.724 1108.72 903.629C1109.41 927.701 1111.14 952.252 1109.35 976.33C1108.97 981.449 1108.36 986.06 1105.29 990.147" stroke="#008EFF" stroke-width="2" stroke-linecap="round"/>
<path d="M1058.86 729.213C1060.38 754.205 1061.05 778.91 1059.5 803.969C1056.16 858.023 1050.33 912.636 1026.49 962.033C1018.07 979.46 1008.16 995.895 996.098 1011.07C993.938 1013.78 990.748 1016.67 989.623 1020" stroke="#008EFF" stroke-width="2" stroke-linecap="round"/>
<path d="M915.543 379.826C932.765 357.173 948.819 333.67 965.958 310.958C1009.07 253.818 1055.56 202.359 1110.87 156.846C1138.33 134.25 1159.1 117.7 1188.52 97.8792C1220.6 76.2661 1254.64 58.8654 1288.97 41.2614C1311.92 29.4914 1334.33 17.3795 1355.59 2.79688" stroke="#008EFF" stroke-width="2" stroke-linecap="round"/>
<path d="M901.17 344.444C915.427 322.098 928.294 298.917 941.721 276.069C967.534 232.145 994.511 189.774 1026.18 149.774C1062.43 103.976 1100.01 59.0465 1138.79 15.3678C1147.83 5.17659 1157.1 -7.20887 1167.63 -16" stroke="#008EFF" stroke-width="2" stroke-linecap="round"/>
<path d="M879.057 296.901C908.651 237.53 934.841 177.2 959.14 115.499C973.94 77.918 990.573 41.5109 1013.95 8.32422" stroke="#008EFF" stroke-width="2" stroke-linecap="round"/>
</g>
<g filter="url(#filter0_f_1589_58767)">
<circle cx="144.5" cy="314.5" r="112.5" fill="#008EFF" fill-opacity="0.6"/>
</g>
<g filter="url(#filter1_f_1589_58767)">
<circle cx="526.5" cy="397.5" r="112.5" fill="#75DBCA" fill-opacity="0.6"/>
</g>
</g>
<defs>
<filter id="filter0_f_1589_58767" x="-268" y="-98" width="825" height="825" filterUnits="userSpaceOnUse" color-interpolation-filters="sRGB">
<feFlood flood-opacity="0" result="BackgroundImageFix"/>
<feBlend mode="normal" in="SourceGraphic" in2="BackgroundImageFix" result="shape"/>
<feGaussianBlur stdDeviation="150" result="effect1_foregroundBlur_1589_58767"/>
</filter>
<filter id="filter1_f_1589_58767" x="114" y="-15" width="825" height="825" filterUnits="userSpaceOnUse" color-interpolation-filters="sRGB">
<feFlood flood-opacity="0" result="BackgroundImageFix"/>
<feBlend mode="normal" in="SourceGraphic" in2="BackgroundImageFix" result="shape"/>
<feGaussianBlur stdDeviation="150" result="effect1_foregroundBlur_1589_58767"/>
</filter>
<clipPath id="clip0_1589_58767">
<rect width="1440" height="729" fill="white"/>
</clipPath>
</defs>
</svg>
