<svg width="16" height="16" viewBox="0 0 16 16" fill="none" xmlns="http://www.w3.org/2000/svg">
<path d="M12.5793 1.93945H3.5393C1.8793 1.93945 0.529297 3.28945 0.529297 4.94945V10.9795C0.529297 12.6395 1.8793 13.9895 3.5393 13.9895H12.5793C14.2393 13.9895 15.5993 12.6395 15.5993 10.9795V4.94945C15.5993 3.28945 14.2393 1.93945 12.5793 1.93945ZM3.5393 3.44945H12.5793C12.9093 3.44945 13.2093 3.55945 13.4593 3.73945L8.0593 7.77945L2.6693 3.72945C2.9093 3.54945 3.2093 3.44945 3.5393 3.44945ZM14.0893 10.9795C14.0893 11.1495 14.0593 11.3195 13.9993 11.4695L11.5293 9.61945C11.1893 9.37945 10.7193 9.43945 10.4693 9.77945C10.2193 10.1095 10.2893 10.5795 10.6193 10.8295L12.8093 12.4695C12.7393 12.4795 12.6593 12.4895 12.5793 12.4895H3.5393C3.4593 12.4895 3.3893 12.4795 3.3193 12.4695L5.4993 10.8295C5.8293 10.5795 5.8993 10.1095 5.6493 9.77945C5.3993 9.43945 4.9293 9.36945 4.5993 9.61945L2.1293 11.4695C2.0693 11.3195 2.0393 11.1495 2.0393 10.9795V5.13945L7.6093 9.31945C7.7393 9.41945 7.8993 9.46945 8.0593 9.46945C8.2193 9.46945 8.3793 9.41945 8.5093 9.31945L14.0893 5.13945V10.9795Z" fill="white"/>
</svg>
