<svg width="24" height="24" viewBox="0 0 24 24" fill="none" xmlns="http://www.w3.org/2000/svg">
<path fill-rule="evenodd" clip-rule="evenodd" d="M12 0C5.37258 0 0 5.37258 0 12C0 18.6274 5.37258 24 12 24C18.6274 24 24 18.6274 24 12C24 5.37258 18.6274 0 12 0ZM13.3207 9.60003H16L15.6511 12.7968L13.3207 12.7976V20H10.2803V12.7992L8 12.8V9.60003H10.2803V7.75924C10.2803 5.32565 11.7853 4.00005 13.8474 4.00005C14.5429 3.99845 15.2376 4.03525 15.9286 4.11045V6.65444H14.5087C13.3845 6.65444 13.3207 7.17444 13.3207 8.00004V9.60003Z" fill="white"/>
</svg>
