<svg width="16" height="16" viewBox="0 0 16 16" fill="none" xmlns="http://www.w3.org/2000/svg">
<g clip-path="url(#clip0_1223_62180)">
<path d="M8 16C6.01 16 2 9.514 2 5.982C2 2.678 4.686 0 8 0C11.314 0 14 2.678 14 5.982C14 9.514 9.99 16 8 16ZM8 2.028C5.802 2.022 4.013 3.79 4 5.982C4.203 7.892 4.88 9.719 5.972 11.302C6.432 12.056 6.954 12.772 7.536 13.436C7.772 13.686 8 13.892 8 13.892C8 13.892 8.23 13.692 8.465 13.436C9.047 12.771 9.57 12.056 10.028 11.301C11.118 9.721 11.798 7.891 12 5.983C11.987 3.791 10.198 2.023 8 2.029V2.028ZM8 8.024C6.905 8.017 6.023 7.127 6.028 6.034C6.033 4.944 6.924 4.062 8.018 4.064C9.114 4.068 10.001 4.954 10 6.044C9.998 6.572 9.786 7.077 9.41 7.448C9.036 7.818 8.528 8.028 8 8.024Z" fill="white"/>
</g>
<defs>
<clipPath id="clip0_1223_62180">
<rect width="16" height="16" fill="white"/>
</clipPath>
</defs>
</svg>
