<svg width="16" height="16" viewBox="0 0 16 16" fill="none" xmlns="http://www.w3.org/2000/svg">
<g clip-path="url(#clip0_1223_62182)">
<path d="M11.1546 16C10.0286 16 8.90362 15.571 8.04662 14.714L1.53862 7.661C-0.154379 5.969 -0.154379 3.18 1.55962 1.465L2.59562 0.429C2.87262 0.152 3.24062 0 3.63162 0C3.63262 0 3.63262 0 3.63262 0C4.02362 0 4.39162 0.153 4.66762 0.43L5.70362 1.465C6.84562 2.608 6.84562 4.467 5.70362 5.61L5.67962 5.634L10.1426 10.543C11.2856 9.426 13.1266 9.432 14.2626 10.568L15.2986 11.604C15.5756 11.881 15.7276 12.249 15.7276 12.642C15.7276 13.035 15.5746 13.401 15.2976 13.677L14.2626 14.713C13.4056 15.57 12.2796 15.999 11.1536 15.999L11.1546 16ZM3.63162 1.465L2.59562 2.501C1.45262 3.644 1.45262 5.503 2.59562 6.646L9.10362 13.699C10.2256 14.821 12.0856 14.819 13.2276 13.678L14.2636 12.641L13.2276 11.605C12.6736 11.051 11.7086 11.051 11.1546 11.605L10.6366 12.123C10.4946 12.265 10.2886 12.331 10.1016 12.338C9.90162 12.333 9.71162 12.246 9.57662 12.098L4.12562 6.103C3.86262 5.813 3.87262 5.368 4.14962 5.091L4.66862 4.573C5.23962 4.002 5.23962 3.073 4.66862 2.501L3.63162 1.465Z" fill="white"/>
<path d="M12.0656 7.87866C11.6606 7.87866 11.3326 7.55066 11.3326 7.14566C11.3326 6.13566 10.5116 5.31366 9.50058 5.31366C9.09558 5.31366 8.76758 4.98566 8.76758 4.58066C8.76758 4.17566 9.09558 3.84766 9.50058 3.84766C11.3186 3.84766 12.7976 5.32666 12.7976 7.14466C12.7976 7.54966 12.4696 7.87766 12.0646 7.87766L12.0656 7.87866Z" fill="white"/>
<path d="M14.9966 7.87997C14.5916 7.87997 14.2636 7.55197 14.2636 7.14697C14.2636 4.52097 12.1266 2.38397 9.50058 2.38397C9.09558 2.38397 8.76758 2.05597 8.76758 1.65097C8.76758 1.24597 9.09558 0.917969 9.50058 0.917969C12.9346 0.917969 15.7286 3.71197 15.7286 7.14597C15.7286 7.55097 15.4006 7.87897 14.9956 7.87897L14.9966 7.87997Z" fill="white"/>
</g>
<defs>
<clipPath id="clip0_1223_62182">
<rect width="16" height="16" fill="white"/>
</clipPath>
</defs>
</svg>
