<svg width="82" height="60" viewBox="0 0 82 60" fill="none" xmlns="http://www.w3.org/2000/svg">
<path d="M1.56 52.1777V38.1777H8.48C9.38667 38.1777 10.1867 38.3444 10.88 38.6777C11.5867 38.9977 12.14 39.4444 12.54 40.0177C12.94 40.5911 13.14 41.2511 13.14 41.9977C13.14 42.6511 12.9533 43.2444 12.58 43.7777C12.2067 44.2977 11.7133 44.7177 11.1 45.0377C11.8333 45.3311 12.42 45.7644 12.86 46.3377C13.3133 46.8977 13.54 47.5377 13.54 48.2577C13.54 49.0177 13.3333 49.6977 12.92 50.2977C12.52 50.8844 11.9667 51.3444 11.26 51.6777C10.5533 52.0111 9.73333 52.1777 8.8 52.1777H1.56ZM5 43.7977H8.08C8.56 43.7977 8.94667 43.6644 9.24 43.3977C9.53333 43.1311 9.68 42.7844 9.68 42.3577C9.68 41.9177 9.53333 41.5711 9.24 41.3177C8.96 41.0511 8.57333 40.9177 8.08 40.9177H5V43.7977ZM5 49.4377H8.36C8.88 49.4377 9.29333 49.2977 9.6 49.0177C9.90667 48.7377 10.06 48.3644 10.06 47.8977C10.06 47.4311 9.90667 47.0577 9.6 46.7777C9.29333 46.4977 8.88 46.3577 8.36 46.3577H5V49.4377ZM22.5345 52.3977C21.5212 52.3977 20.5745 52.2177 19.6945 51.8577C18.8145 51.4844 18.0412 50.9711 17.3745 50.3177C16.7212 49.6511 16.2079 48.8844 15.8345 48.0177C15.4745 47.1377 15.2945 46.1911 15.2945 45.1777C15.2945 44.1644 15.4745 43.2244 15.8345 42.3577C16.2079 41.4777 16.7212 40.7111 17.3745 40.0577C18.0412 39.3911 18.8145 38.8777 19.6945 38.5177C20.5745 38.1444 21.5212 37.9577 22.5345 37.9577C23.5479 37.9577 24.4945 38.1444 25.3745 38.5177C26.2545 38.8777 27.0212 39.3911 27.6745 40.0577C28.3412 40.7111 28.8545 41.4777 29.2145 42.3577C29.5879 43.2244 29.7745 44.1644 29.7745 45.1777C29.7745 46.1911 29.5879 47.1377 29.2145 48.0177C28.8545 48.8844 28.3412 49.6511 27.6745 50.3177C27.0212 50.9711 26.2545 51.4844 25.3745 51.8577C24.4945 52.2177 23.5479 52.3977 22.5345 52.3977ZM22.5345 49.3377C23.0545 49.3377 23.5412 49.2377 23.9945 49.0377C24.4479 48.8244 24.8412 48.5311 25.1745 48.1577C25.5079 47.7711 25.7679 47.3311 25.9545 46.8377C26.1412 46.3311 26.2345 45.7777 26.2345 45.1777C26.2345 44.5777 26.1412 44.0311 25.9545 43.5377C25.7679 43.0311 25.5079 42.5911 25.1745 42.2177C24.8412 41.8311 24.4479 41.5377 23.9945 41.3377C23.5412 41.1244 23.0545 41.0177 22.5345 41.0177C22.0145 41.0177 21.5279 41.1244 21.0745 41.3377C20.6212 41.5377 20.2279 41.8311 19.8945 42.2177C19.5612 42.5911 19.3012 43.0311 19.1145 43.5377C18.9279 44.0311 18.8345 44.5777 18.8345 45.1777C18.8345 45.7777 18.9279 46.3311 19.1145 46.8377C19.3012 47.3311 19.5612 47.7711 19.8945 48.1577C20.2279 48.5311 20.6212 48.8244 21.0745 49.0377C21.5279 49.2377 22.0145 49.3377 22.5345 49.3377ZM34.9005 52.1777V41.1177H30.4005V38.1777H42.8405V41.1177H38.3405V52.1777H34.9005ZM44.8217 52.1777V38.1777H48.0617L54.2817 46.6577L54.2217 38.1777H57.4617V52.1777H54.4217L48.0017 43.4177L48.0617 52.1777H44.8217ZM67.1634 52.3977C66.1501 52.3977 65.2034 52.2177 64.3234 51.8577C63.4434 51.4844 62.6701 50.9711 62.0034 50.3177C61.3501 49.6511 60.8368 48.8844 60.4634 48.0177C60.1034 47.1377 59.9234 46.1911 59.9234 45.1777C59.9234 44.1644 60.1034 43.2244 60.4634 42.3577C60.8368 41.4777 61.3501 40.7111 62.0034 40.0577C62.6701 39.3911 63.4434 38.8777 64.3234 38.5177C65.2034 38.1444 66.1501 37.9577 67.1634 37.9577C68.1768 37.9577 69.1234 38.1444 70.0034 38.5177C70.8834 38.8777 71.6501 39.3911 72.3034 40.0577C72.9701 40.7111 73.4834 41.4777 73.8434 42.3577C74.2168 43.2244 74.4034 44.1644 74.4034 45.1777C74.4034 46.1911 74.2168 47.1377 73.8434 48.0177C73.4834 48.8844 72.9701 49.6511 72.3034 50.3177C71.6501 50.9711 70.8834 51.4844 70.0034 51.8577C69.1234 52.2177 68.1768 52.3977 67.1634 52.3977ZM67.1634 49.3377C67.6834 49.3377 68.1701 49.2377 68.6234 49.0377C69.0768 48.8244 69.4701 48.5311 69.8034 48.1577C70.1368 47.7711 70.3968 47.3311 70.5834 46.8377C70.7701 46.3311 70.8634 45.7777 70.8634 45.1777C70.8634 44.5777 70.7701 44.0311 70.5834 43.5377C70.3968 43.0311 70.1368 42.5911 69.8034 42.2177C69.4701 41.8311 69.0768 41.5377 68.6234 41.3377C68.1701 41.1244 67.6834 41.0177 67.1634 41.0177C66.6434 41.0177 66.1568 41.1244 65.7034 41.3377C65.2501 41.5377 64.8568 41.8311 64.5234 42.2177C64.1901 42.5911 63.9301 43.0311 63.7434 43.5377C63.5568 44.0311 63.4634 44.5777 63.4634 45.1777C63.4634 45.7777 63.5568 46.3311 63.7434 46.8377C63.9301 47.3311 64.1901 47.7711 64.5234 48.1577C64.8568 48.5311 65.2501 48.8244 65.7034 49.0377C66.1568 49.2377 66.6434 49.3377 67.1634 49.3377ZM76.6725 52.1777V38.1777H80.1125V52.1777H76.6725Z" fill="#01BFFB"/>
<path d="M18 18.5281C18 17.8848 18.7891 17.3633 19.7625 17.3633C20.7359 17.3633 21.525 17.8848 21.525 18.5281V22.3139C21.525 22.9572 20.7359 23.4787 19.7625 23.4787C18.7891 23.4787 18 22.9572 18 22.3139V18.5281Z" fill="#01BFFB"/>
<path d="M61.4746 18.5281C61.4746 17.8848 62.2637 17.3633 63.2371 17.3633C64.2105 17.3633 64.9996 17.8848 64.9996 18.5281V22.3139C64.9996 22.9572 64.2105 23.4787 63.2371 23.4787C62.2637 23.4787 61.4746 22.9572 61.4746 22.3139V18.5281Z" fill="#01BFFB"/>
<path d="M45.0246 3.09482C45.0246 4.78355 43.4464 6.15254 41.4996 6.15254C39.5528 6.15254 37.9746 4.78355 37.9746 3.09482C37.9746 1.40609 39.5528 0.0371094 41.4996 0.0371094C43.4464 0.0371094 45.0246 1.40609 45.0246 3.09482Z" fill="#01BFFB"/>
<path fill-rule="evenodd" clip-rule="evenodd" d="M50.1688 9.17135H32.832C28.4609 9.17135 24.9174 12.3252 24.9174 16.2157V22.5892C24.9174 26.4797 28.4609 29.6335 32.832 29.6335H50.1688C54.5399 29.6335 58.0834 26.4797 58.0834 22.5892V16.2157C58.0834 12.3252 54.5399 9.17135 50.1688 9.17135ZM32.832 6.15234C26.5875 6.15234 21.5254 10.6579 21.5254 16.2157V22.5892C21.5254 28.147 26.5875 32.6525 32.832 32.6525H50.1688C56.4132 32.6525 61.4754 28.147 61.4754 22.5892V16.2157C61.4754 10.6579 56.4132 6.15234 50.1688 6.15234H32.832Z" fill="#01BFFB"/>
<path d="M35.625 19.9114C35.625 21.3187 34.3098 22.4595 32.6875 22.4595C31.0652 22.4595 29.75 21.3187 29.75 19.9114C29.75 18.5041 31.0652 17.3633 32.6875 17.3633C34.3098 17.3633 35.625 18.5041 35.625 19.9114Z" fill="#01BFFB"/>
<path d="M53.25 19.9114C53.25 21.3187 51.9348 22.4595 50.3125 22.4595C48.6902 22.4595 47.375 21.3187 47.375 19.9114C47.375 18.5041 48.6902 17.3633 50.3125 17.3633C51.9348 17.3633 53.25 18.5041 53.25 19.9114Z" fill="#01BFFB"/>
</svg>
